{
  "accessors": [
    {
      "bufferView": 1,
      "componentType": 5126,
      "count": 917,
      "max": [
        154.06875610351562,
        7.0000057220458984,
        129.32286071777344
      ],
      "min": [
        -155.33061218261719,
        -7.0000057220458984,
        -126.53911590576172
      ],
      "type": "VEC3"
    },
    {
      "bufferView": 1,
      "byteOffset": 11004,
      "componentType": 5126,
      "count": 917,
      "max": [
        0.99994456768035889,
        1,
        0.99994325637817383
      ],
      "min": [
        -0.99972641468048096,
        -1,
        -0.99999809265136719
      ],
      "type": "VEC3"
    },
    {
      "bufferView": 2,
      "componentType": 5126,
      "count": 917,
      "max": [
        1,
        1,
        0.77802056074142456,
        1
      ],
      "min": [
        -0.99998992681503296,
        -1,
        -0.99990564584732056,
        -1
      ],
      "type": "VEC4"
    },
    {
      "bufferView": 0,
      "componentType": 5125,
      "count": 1860,
      "max": [
        916
      ],
      "min": [
        0
      ],
      "type": "SCALAR"
    }
  ],
  "asset": {
    "extras": {
      "author": "III_OrilaS_III (https://sketchfab.com/III_OrilaS_III)",
      "license": "CC-BY-4.0 (http://creativecommons.org/licenses/by/4.0/)",
      "source": "https://sketchfab.com/models/60aedf8d974d481995e196225fb0bd2e",
      "title": "Twitter Logo"
    },
    "generator": "Sketchfab-3.18.7",
    "version": "2.0"
  },
  "bufferViews": [
    {
      "buffer": 0,
      "byteLength": 7440,
      "byteOffset": 0,
      "name": "floatBufferViews",
      "target": 34963
    },
    {
      "buffer": 0,
      "byteLength": 22008,
      "byteOffset": 7440,
      "byteStride": 12,
      "name": "floatBufferViews",
      "target": 34962
    },
    {
      "buffer": 0,
      "byteLength": 14672,
      "byteOffset": 29448,
      "byteStride": 16,
      "name": "floatBufferViews",
      "target": 34962
    }
  ],
  "buffers": [
    {
      "byteLength": 44120,
      "uri": "scene.bin"
    }
  ],
  "materials": [
    {
      "doubleSided": true,
      "emissiveFactor": [
        0,
        0,
        0
      ],
      "name": "twitter_logo",
      "pbrMetallicRoughness": {
        "baseColorFactor": [
          0.168627,
          0.63529400000000003,
          0.94117600000000001,
          1
        ],
        "metallicFactor": 0,
        "roughnessFactor": 0.59999999999999998
      }
    }
  ],
  "meshes": [
    {
      "name": "twitter_logo_twitter_logo_0",
      "primitives": [
        {
          "attributes": {
            "NORMAL": 1,
            "POSITION": 0,
            "TANGENT": 2
          },
          "indices": 3,
          "material": 0,
          "mode": 4
        }
      ]
    }
  ],
  "nodes": [
    {
      "children": [
        1
      ],
      "name": "RootNode (gltf orientation matrix)",
      "rotation": [
        -0.70710678118654746,
        -0,
        -0,
        0.70710678118654757
      ]
    },
    {
      "children": [
        2
      ],
      "name": "RootNode (model correction matrix)"
    },
    {
      "children": [
        3
      ],
      "matrix": [
        1,
        0,
        0,
        0,
        0,
        0,
        1,
        0,
        0,
        -1,
        0,
        0,
        0,
        0,
        0,
        1
      ],
      "name": "84012a783ac14b0093a189f1d945e890.fbx"
    },
    {
      "children": [
        4,
        6
      ],
      "name": "RootNode"
    },
    {
      "children": [
        5
      ],
      "matrix": [
        -0.072216355942080979,
        -0.13715402553943523,
        -0.98791374684876943,
        0,
        -0.009999259601634794,
        0.99054973286469972,
        -0.13678904023748087,
        0,
        0.99733886555265949,
        -9.7144514654701197e-16,
        -0.072905330793668455,
        0,
        32.7493896484375,
        127.0291748046875,
        554.5413818359375,
        1
      ],
      "name": "CINEMA_4D_Editor"
    },
    {
      "name": ""
    },
    {
      "children": [
        7
      ],
      "matrix": [
        1,
        0,
        0,
        0,
        0,
        2.2204460492503131e-16,
        1,
        0,
        0,
        -1,
        2.2204460492503131e-16,
        0,
        0,
        0,
        3.944304526105059e-31,
        1
      ],
      "name": "twitter_logo"
    },
    {
      "mesh": 0,
      "name": "twitter_logo_twitter_logo_0"
    }
  ],
  "scene": 0,
  "scenes": [
    {
      "name": "OSG_Scene",
      "nodes": [
        0
      ]
    }
  ]
}

